<svg width="353" height="273" viewBox="0 0 353 273" fill="none" xmlns="http://www.w3.org/2000/svg">
<path d="M8 83C8 55.3857 30.3858 33 58 33H108.859C111.62 33 113.859 35.2386 113.859 38V188.891C113.859 216.505 91.473 238.89 63.8588 238.89H13C10.2386 238.89 8 236.652 8 233.89V83Z" fill="#5F2C82"/>
<path d="M123.57 78.7896C123.57 76.0282 125.809 73.7896 128.57 73.7896H178.458C206.072 73.7896 228.458 96.1754 228.458 123.79V233.89C228.458 236.652 226.219 238.89 223.458 238.89H173.57C145.956 238.89 123.57 216.505 123.57 188.89V78.7896Z" fill="#5F2C82"/>
<path d="M238.17 78.7896C238.17 76.0282 240.408 73.7896 243.17 73.7896H295C322.614 73.7896 345 96.1754 345 123.79V233.89C345 236.652 342.761 238.89 340 238.89H288.17C260.556 238.89 238.17 216.505 238.17 188.89V78.7896Z" fill="#5F2C82"/>
</svg>
